<?xml version="1.0" encoding="us-ascii" standalone="no"?><svg xmlns="http://www.w3.org/2000/svg" xmlns:xlink="http://www.w3.org/1999/xlink" contentStyleType="text/css" height="934px" preserveAspectRatio="none" style="width:1522px;height:934px;background:#FFFFFF;" version="1.1" viewBox="0 0 1522 934" width="1522px" zoomAndPan="magnify"><defs><linearGradient id="g1b16ez3m2b7wy0" x1="50%" x2="50%" y1="0%" y2="100%"><stop offset="0%" stop-color="#98FB98"/><stop offset="100%" stop-color="#FFC0CB"/></linearGradient></defs><g><ellipse cx="684" cy="35.5" fill="#222222" rx="10" ry="10" style="stroke:#222222;stroke-width:1.0;"/><g id="Idle"><rect fill="#98FB98" height="52.7031" rx="12.5" ry="12.5" style="stroke:#181818;stroke-width:0.5;" width="123" x="622.5" y="338"/><line style="stroke:#181818;stroke-width:0.5;" x1="622.5" x2="745.5" y1="365.6094" y2="365.6094"/><text fill="#000000" font-family="sans-serif" font-size="14" lengthAdjust="spacing" textLength="22" x="673" y="357.5332">Idle</text><text fill="#000000" font-family="sans-serif" font-size="12" lengthAdjust="spacing" textLength="103" x="627.5" y="383.0664">All valves = Closed</text></g><g id="Abort"><rect fill="#98FB98" height="97.9844" rx="12.5" ry="12.5" style="stroke:#181818;stroke-width:0.5;" width="259" x="554.5" y="152.5"/><line style="stroke:#181818;stroke-width:0.5;" x1="554.5" x2="813.5" y1="180.1094" y2="180.1094"/><text fill="#000000" font-family="sans-serif" font-size="14" lengthAdjust="spacing" textLength="34" x="667" y="172.0332">Abort</text><text fill="#000000" font-family="sans-serif" font-size="12" lengthAdjust="spacing" textLength="239" x="559.5" y="197.5664">Wait for X seconds (~10) to allow for "regret"</text><text fill="#000000" font-family="sans-serif" font-size="12" lengthAdjust="spacing" textLength="103" x="559.5" y="212.6602">Abort Valve = Open</text><text fill="#000000" font-family="sans-serif" font-size="12" lengthAdjust="spacing" textLength="126" x="559.5" y="227.7539">Tank Top Valve = Open</text><text fill="#000000" font-family="sans-serif" font-size="12" lengthAdjust="spacing" textLength="134" x="559.5" y="242.8477">All other valves = Closed</text></g><path d="M861.5,143 L1232,143 A12.5,12.5 0 0 1 1244.5,155.5 L1244.5,170.6094 L849,170.6094 L849,155.5 A12.5,12.5 0 0 1 861.5,143 " fill="#98FB98" style="stroke:#98FB98;stroke-width:1.0;"/><rect fill="none" height="117.4063" rx="12.5" ry="12.5" style="stroke:#181818;stroke-width:0.5;" width="395.5" x="849" y="143"/><line style="stroke:#181818;stroke-width:0.5;" x1="849" x2="1244.5" y1="170.6094" y2="170.6094"/><text fill="#000000" font-family="sans-serif" font-size="14" lengthAdjust="spacing" textLength="69" x="1012.25" y="162.5332">SafePause</text><g id="SafePause.SafeIdle"><rect fill="#98FB98" height="52.7031" rx="12.5" ry="12.5" style="stroke:#181818;stroke-width:0.5;" width="123" x="861" y="190.1094"/><line style="stroke:#181818;stroke-width:0.5;" x1="861" x2="984" y1="217.7188" y2="217.7188"/><text fill="#000000" font-family="sans-serif" font-size="14" lengthAdjust="spacing" textLength="22" x="911.5" y="209.6426">Idle</text><text fill="#000000" font-family="sans-serif" font-size="12" lengthAdjust="spacing" textLength="103" x="866" y="235.1758">All valves = Closed</text></g><g id="SafePause.SafeVent"><rect fill="#FFFFE0" height="67.7969" rx="12.5" ry="12.5" style="stroke:#181818;stroke-width:0.5;" width="154" x="1081.5" y="182.6094"/><line style="stroke:#181818;stroke-width:0.5;" x1="1081.5" x2="1235.5" y1="210.2188" y2="210.2188"/><text fill="#000000" font-family="sans-serif" font-size="14" lengthAdjust="spacing" textLength="29" x="1144" y="202.1426">Vent</text><text fill="#000000" font-family="sans-serif" font-size="12" lengthAdjust="spacing" textLength="99" x="1086.5" y="227.6758">Vent Valve = Open</text><text fill="#000000" font-family="sans-serif" font-size="12" lengthAdjust="spacing" textLength="134" x="1086.5" y="242.7695">All other valves = Closed</text></g><!--link SafeIdle to SafeVent--><g id="link_SafeIdle_SafeVent"><path d="M984.16,235.6794 C987.89,236.4394 991.61,237.0894 995.25,237.6094 C1028.25,242.2794 1037.14,241.4894 1070.25,237.6094 C1073.85,237.1894 1071.5853,237.6167 1075.2753,237.0267 " fill="none" id="SafeIdle-to-SafeVent" style="stroke:#181818;stroke-width:1.0;"/><polygon fill="#181818" points="1081.2,236.0794,1071.6813,233.5505,1076.2627,236.8688,1072.9444,241.4502,1081.2,236.0794" style="stroke:#181818;stroke-width:1.0;"/><text fill="#000000" font-family="sans-serif" font-size="13" lengthAdjust="spacing" textLength="73" x="996.25" y="234.1045">NP &gt; Trigger</text></g><!--link SafeVent to SafeIdle--><g id="link_SafeVent_SafeIdle"><path d="M1081.1,216.6094 C1049.66,216.6094 1019.83,216.6094 990.2,216.6094 " fill="none" id="SafeVent-to-SafeIdle" style="stroke:#181818;stroke-width:1.0;"/><polygon fill="#181818" points="984.2,216.6094,993.2,220.6094,989.2,216.6094,993.2,212.6094,984.2,216.6094" style="stroke:#181818;stroke-width:1.0;"/><text fill="#000000" font-family="sans-serif" font-size="13" lengthAdjust="spacing" textLength="78" x="993.75" y="210.1045">NP &lt;= Target</text></g><g id="elem_N1"><path d="M729.5,6 L729.5,65.0547 L932.5,65.0547 L932.5,16 L922.5,6 L729.5,6 " fill="#FEFFDD" style="stroke:#181818;stroke-width:0.5;"/><path d="M922.5,6 L922.5,16 L932.5,16 L922.5,6 " fill="#FEFFDD" style="stroke:#181818;stroke-width:1.0;"/><text fill="#000000" font-family="sans-serif" font-size="13" lengthAdjust="spacing" textLength="166" x="735.5" y="24.4951">NP - Nitrogen Tank Pressure</text><text fill="#000000" font-family="sans-serif" font-size="13" lengthAdjust="spacing" textLength="182" x="735.5" y="40.8467">N2OP - Nitrous Oxide Pressure</text><text fill="#000000" font-family="sans-serif" font-size="13" lengthAdjust="spacing" textLength="175" x="735.5" y="57.1982">N2OW - Nitrous Oxide Weight</text></g><g id="Safe"><rect fill="#98FB98" height="50" rx="12.5" ry="12.5" style="stroke:#181818;stroke-width:0.5;" width="50" x="968" y="10.5"/><line style="stroke:#181818;stroke-width:0.5;" x1="968" x2="1018" y1="38.1094" y2="38.1094"/><text fill="#000000" font-family="sans-serif" font-size="14" lengthAdjust="spacing" textLength="29" x="978.5" y="30.0332">Safe</text></g><g id="Dangerous"><rect fill="#FFC0CB" height="50" rx="12.5" ry="12.5" style="stroke:#181818;stroke-width:0.5;" width="90" x="1053" y="10.5"/><line style="stroke:#181818;stroke-width:0.5;" x1="1053" x2="1143" y1="38.1094" y2="38.1094"/><text fill="#000000" font-family="sans-serif" font-size="14" lengthAdjust="spacing" textLength="70" x="1063" y="30.0332">Dangerous</text></g><g id="NotIdeal"><rect fill="#FFFFE0" height="50" rx="12.5" ry="12.5" style="stroke:#181818;stroke-width:0.5;" width="75" x="1178.5" y="10.5"/><line style="stroke:#181818;stroke-width:0.5;" x1="1178.5" x2="1253.5" y1="38.1094" y2="38.1094"/><text fill="#000000" font-family="sans-serif" font-size="14" lengthAdjust="spacing" textLength="55" x="1188.5" y="30.0332">Not Ideal</text></g><path d="M19.5,549 L208.5,549 A12.5,12.5 0 0 1 221,561.5 L221,596.7031 L7,596.7031 L7,561.5 A12.5,12.5 0 0 1 19.5,549 " fill="#98FB98" style="stroke:#98FB98;stroke-width:1.0;"/><rect fill="none" height="300.5" rx="12.5" ry="12.5" style="stroke:#181818;stroke-width:0.5;" width="214" x="7" y="549"/><line style="stroke:#181818;stroke-width:0.5;" x1="7" x2="221" y1="596.7031" y2="596.7031"/><line style="stroke:#181818;stroke-width:0.5;" x1="7" x2="221" y1="576.6094" y2="576.6094"/><text fill="#000000" font-family="sans-serif" font-size="14" lengthAdjust="spacing" textLength="50" x="89" y="568.5332">Filling N</text><text fill="#000000" font-family="sans-serif" font-size="12" lengthAdjust="spacing" textLength="107" x="12" y="589.0664">TargetNP = 200 bar</text><g id="COPVFill.COPVIdle"><rect fill="#98FB98" height="52.7031" rx="12.5" ry="12.5" style="stroke:#181818;stroke-width:0.5;" width="123" x="34.5" y="664.7031"/><line style="stroke:#181818;stroke-width:0.5;" x1="34.5" x2="157.5" y1="692.3125" y2="692.3125"/><text fill="#000000" font-family="sans-serif" font-size="14" lengthAdjust="spacing" textLength="22" x="85" y="684.2363">Idle</text><text fill="#000000" font-family="sans-serif" font-size="12" lengthAdjust="spacing" textLength="103" x="39.5" y="709.7695">All valves = Closed</text></g><g id="COPVFill.FillCOPV"><rect fill="#FFFFE0" height="67.7969" rx="12.5" ry="12.5" style="stroke:#181818;stroke-width:0.5;" width="154" x="19" y="771.7031"/><line style="stroke:#181818;stroke-width:0.5;" x1="19" x2="173" y1="799.3125" y2="799.3125"/><text fill="#000000" font-family="sans-serif" font-size="14" lengthAdjust="spacing" textLength="57" x="67.5" y="791.2363">FillCOPV</text><text fill="#000000" font-family="sans-serif" font-size="12" lengthAdjust="spacing" textLength="84" x="24" y="816.7695">N Valve = Open</text><text fill="#000000" font-family="sans-serif" font-size="12" lengthAdjust="spacing" textLength="134" x="24" y="831.8633">All other valves = Closed</text></g><ellipse cx="96" cy="617.7031" fill="#222222" rx="10" ry="10" style="stroke:#222222;stroke-width:1.0;"/><!--link *start*COPVFill to COPVIdle--><g id="link_*start*COPVFill_COPVIdle"><path d="M96,627.7631 C96,637.0031 96,645.7831 96,658.6331 " fill="none" id="*start*COPVFill-to-COPVIdle" style="stroke:#181818;stroke-width:1.0;"/><polygon fill="#181818" points="96,664.6331,100,655.6331,96,659.6331,92,655.6331,96,664.6331" style="stroke:#181818;stroke-width:1.0;"/></g><!--link COPVIdle to FillCOPV--><g id="link_COPVIdle_FillCOPV"><path d="M58.03,717.7831 C47.69,728.0631 40.64,740.5831 46,753.7031 C48.58,760.0131 48.6265,761.2762 52.9665,766.7362 " fill="none" id="COPVIdle-to-FillCOPV" style="stroke:#181818;stroke-width:1.0;"/><polygon fill="#181818" points="56.7,771.4331,54.2311,761.8987,53.5888,767.519,47.9685,766.8767,56.7,771.4331" style="stroke:#181818;stroke-width:1.0;"/><text fill="#000000" font-family="sans-serif" font-size="13" lengthAdjust="spacing" textLength="78" x="47" y="750.1982">NP &lt;= Target</text></g><!--link FillCOPV to COPVIdle--><g id="link_FillCOPV_COPVIdle"><path d="M120.88,771.5631 C126.44,760.3731 129.73,747.6731 126,735.7031 C124.09,729.5731 124.1953,728.6089 120.6853,723.0789 " fill="none" id="FillCOPV-to-COPVIdle" style="stroke:#181818;stroke-width:1.0;"/><polygon fill="#181818" points="117.47,718.0131,118.9158,727.7553,120.1494,722.2346,125.6701,723.4682,117.47,718.0131" style="stroke:#181818;stroke-width:1.0;"/><text fill="#000000" font-family="sans-serif" font-size="13" lengthAdjust="spacing" textLength="78" x="128" y="750.1982">NP &gt;= Target</text></g><path d="M268.5,541 L693.7138,541 A12.5,12.5 0 0 1 706.2138,553.5 L706.2138,603.7969 L256,603.7969 L256,553.5 A12.5,12.5 0 0 1 268.5,541 " fill="#98FB98" style="stroke:#98FB98;stroke-width:1.0;"/><rect fill="none" height="315.5938" rx="12.5" ry="12.5" style="stroke:#181818;stroke-width:0.5;" width="450.2138" x="256" y="541"/><line style="stroke:#181818;stroke-width:0.5;" x1="256" x2="706.2138" y1="603.7969" y2="603.7969"/><line style="stroke:#181818;stroke-width:0.5;" x1="256" x2="706.2138" y1="568.6094" y2="568.6094"/><text fill="#000000" font-family="sans-serif" font-size="14" lengthAdjust="spacing" textLength="99" x="431.6069" y="560.5332">PrePressurizing</text><text fill="#000000" font-family="sans-serif" font-size="12" lengthAdjust="spacing" textLength="111" x="261" y="581.0664">TriggerN20P = 7 bar</text><text fill="#000000" font-family="sans-serif" font-size="12" lengthAdjust="spacing" textLength="109" x="261" y="596.1602">TargetN2OP = 5 bar</text><g id="PreFill.PrepIdle"><rect fill="#98FB98" height="52.7031" rx="12.5" ry="12.5" style="stroke:#181818;stroke-width:0.5;" width="123" x="384.7138" y="671.7969"/><line style="stroke:#181818;stroke-width:0.5;" x1="384.7138" x2="507.7138" y1="699.4063" y2="699.4063"/><text fill="#000000" font-family="sans-serif" font-size="14" lengthAdjust="spacing" textLength="22" x="435.2138" y="691.3301">Idle</text><text fill="#000000" font-family="sans-serif" font-size="12" lengthAdjust="spacing" textLength="103" x="389.7138" y="716.8633">All valves = Closed</text></g><g id="PreFill.PreVent"><rect fill="#FFFFE0" height="67.7969" rx="12.5" ry="12.5" style="stroke:#181818;stroke-width:0.5;" width="154" x="270.2138" y="778.7969"/><line style="stroke:#181818;stroke-width:0.5;" x1="270.2138" x2="424.2138" y1="806.4063" y2="806.4063"/><text fill="#000000" font-family="sans-serif" font-size="14" lengthAdjust="spacing" textLength="29" x="332.7138" y="798.3301">Vent</text><text fill="#000000" font-family="sans-serif" font-size="12" lengthAdjust="spacing" textLength="99" x="275.2138" y="823.8633">Vent Valve = Open</text><text fill="#000000" font-family="sans-serif" font-size="12" lengthAdjust="spacing" textLength="134" x="275.2138" y="838.957">All other valves = Closed</text></g><g id="PreFill.PreFillN"><rect fill="#FFFFE0" height="67.7969" rx="12.5" ry="12.5" style="stroke:#181818;stroke-width:0.5;" width="146" x="472.2138" y="778.7969"/><line style="stroke:#181818;stroke-width:0.5;" x1="472.2138" x2="618.2138" y1="806.4063" y2="806.4063"/><text fill="#000000" font-family="sans-serif" font-size="14" lengthAdjust="spacing" textLength="31" x="529.7138" y="798.3301">Fill N</text><text fill="#000000" font-family="sans-serif" font-size="12" lengthAdjust="spacing" textLength="126" x="477.2138" y="823.8633">Tank Top Valve = Open</text><text fill="#000000" font-family="sans-serif" font-size="12" lengthAdjust="spacing" textLength="84" x="477.2138" y="838.957">N Valve = Open</text></g><ellipse cx="446.2138" cy="624.7969" fill="#222222" rx="10" ry="10" style="stroke:#222222;stroke-width:1.0;"/><!--link *start*PreFill to PrepIdle--><g id="link_*start*PreFill_PrepIdle"><path d="M446.2138,634.8569 C446.2138,644.0969 446.2138,652.8769 446.2138,665.7269 " fill="none" id="*start*PreFill-to-PrepIdle" style="stroke:#181818;stroke-width:1.0;"/><polygon fill="#181818" points="446.2138,671.7269,450.2138,662.7269,446.2138,666.7269,442.2138,662.7269,446.2138,671.7269" style="stroke:#181818;stroke-width:1.0;"/></g><!--link PrepIdle to PreFillN--><g id="link_PrepIdle_PreFillN"><path d="M468.6738,724.8269 C482.7138,740.7769 496.9694,756.9731 512.1094,774.1731 " fill="none" id="PrepIdle-to-PreFillN" style="stroke:#181818;stroke-width:1.0;"/><polygon fill="#181818" points="516.0738,778.6769,513.1297,769.2783,512.7701,774.9237,507.1247,774.5641,516.0738,778.6769" style="stroke:#181818;stroke-width:1.0;"/><text fill="#000000" font-family="sans-serif" font-size="13" lengthAdjust="spacing" textLength="87" x="499.2138" y="757.292">N2OP &lt; Target</text></g><!--link PreFillN to PrepIdle--><g id="link_PreFillN_PrepIdle"><path d="M585.4938,778.6769 C594.7738,767.1469 599.7238,754.2369 591.2138,742.7969 C572.0738,717.0769 544.1764,706.8836 514.0064,702.3236 " fill="none" id="PreFillN-to-PrepIdle" style="stroke:#181818;stroke-width:1.0;"/><polygon fill="#181818" points="508.0738,701.4269,516.3749,706.727,513.0176,702.1741,517.5705,698.8168,508.0738,701.4269" style="stroke:#181818;stroke-width:1.0;"/><text fill="#000000" font-family="sans-serif" font-size="13" lengthAdjust="spacing" textLength="95" x="596.2138" y="757.292">N2OP &gt;= Target</text></g><!--link PrepIdle to PreVent--><g id="link_PrepIdle_PreVent"><path d="M384.7038,707.1669 C342.0238,714.0269 290.5338,725.6169 277.2138,742.7969 C267.4938,755.3369 269.5764,763.9052 281.8964,774.7852 " fill="none" id="PrepIdle-to-PreVent" style="stroke:#181818;stroke-width:1.0;"/><polygon fill="#181818" points="286.3938,778.7569,282.2955,769.8012,282.646,775.4472,277,775.7976,286.3938,778.7569" style="stroke:#181818;stroke-width:1.0;"/><text fill="#000000" font-family="sans-serif" font-size="13" lengthAdjust="spacing" textLength="87" x="278.2138" y="757.292">N20P &gt; Trigger</text></g><!--link PreVent to PrepIdle--><g id="link_PreVent_PrepIdle"><path d="M363.3638,778.7569 C370.1138,766.7269 378.6238,753.4769 388.2138,742.7969 C393.9338,736.4269 396.0066,734.11 402.8766,728.65 " fill="none" id="PreVent-to-PrepIdle" style="stroke:#181818;stroke-width:1.0;"/><polygon fill="#181818" points="407.5738,724.9169,398.0392,727.3851,403.6594,728.0278,403.0167,733.6481,407.5738,724.9169" style="stroke:#181818;stroke-width:1.0;"/><text fill="#000000" font-family="sans-serif" font-size="13" lengthAdjust="spacing" textLength="92" x="389.2138" y="757.292">N20P &lt;= Target</text></g><path d="M754,469 L1022.35,469 A12.5,12.5 0 0 1 1034.85,481.5 L1034.85,561.9844 L741.5,561.9844 L741.5,481.5 A12.5,12.5 0 0 1 754,469 " fill="#FFFFE0" style="stroke:#FFFFE0;stroke-width:1.0;"/><rect fill="none" height="459.875" rx="12.5" ry="12.5" style="stroke:#181818;stroke-width:0.5;" width="293.35" x="741.5" y="469"/><line style="stroke:#181818;stroke-width:0.5;" x1="741.5" x2="1034.85" y1="561.9844" y2="561.9844"/><line style="stroke:#181818;stroke-width:0.5;" x1="741.5" x2="1034.85" y1="496.6094" y2="496.6094"/><text fill="#000000" font-family="sans-serif" font-size="14" lengthAdjust="spacing" textLength="69" x="853.675" y="488.5332">Filling N2O</text><text fill="#000000" font-family="sans-serif" font-size="12" lengthAdjust="spacing" textLength="120" x="746.5" y="509.0664">TriggerN2OP = 38 bar</text><text fill="#000000" font-family="sans-serif" font-size="12" lengthAdjust="spacing" textLength="116" x="746.5" y="524.1602">TargetN2OP = 35 bar</text><text fill="#000000" font-family="sans-serif" font-size="12" lengthAdjust="spacing" textLength="107" x="746.5" y="539.2539">TriggerTemp = 2 &#186;C</text><text fill="#000000" font-family="sans-serif" font-size="12" lengthAdjust="spacing" textLength="109" x="746.5" y="554.3477">TargetWeight = 7 kg</text><g id="MainFill.FillOxIdle"><rect fill="#98FB98" height="52.7031" rx="12.5" ry="12.5" style="stroke:#181818;stroke-width:0.5;" width="123" x="772.35" y="573.9844"/><line style="stroke:#181818;stroke-width:0.5;" x1="772.35" x2="895.35" y1="601.5938" y2="601.5938"/><text fill="#000000" font-family="sans-serif" font-size="14" lengthAdjust="spacing" textLength="22" x="822.85" y="593.5176">Idle</text><text fill="#000000" font-family="sans-serif" font-size="12" lengthAdjust="spacing" textLength="103" x="777.35" y="619.0508">All valves = Closed</text></g><g id="MainFill.FillOx"><rect fill="#FFC0CB" height="67.7969" rx="12.5" ry="12.5" style="stroke:#181818;stroke-width:0.5;" width="154" x="756.85" y="680.9844"/><line style="stroke:#181818;stroke-width:0.5;" x1="756.85" x2="910.85" y1="708.5938" y2="708.5938"/><text fill="#000000" font-family="sans-serif" font-size="14" lengthAdjust="spacing" textLength="35" x="816.35" y="700.5176">FillOx</text><text fill="#000000" font-family="sans-serif" font-size="12" lengthAdjust="spacing" textLength="100" x="761.85" y="726.0508">N2O Valve = Open</text><text fill="#000000" font-family="sans-serif" font-size="12" lengthAdjust="spacing" textLength="134" x="761.85" y="741.1445">All other valves = Closed</text></g><g id="MainFill.VentFillOx"><rect fill="#FFFFE0" height="82.8906" rx="12.5" ry="12.5" style="stroke:#181818;stroke-width:0.5;" width="154" x="756.85" y="835.9844"/><line style="stroke:#181818;stroke-width:0.5;" x1="756.85" x2="910.85" y1="863.5938" y2="863.5938"/><text fill="#000000" font-family="sans-serif" font-size="14" lengthAdjust="spacing" textLength="64" x="801.85" y="855.5176">VentFillOx</text><text fill="#000000" font-family="sans-serif" font-size="12" lengthAdjust="spacing" textLength="99" x="761.85" y="881.0508">Vent Valve = Open</text><text fill="#000000" font-family="sans-serif" font-size="12" lengthAdjust="spacing" textLength="100" x="761.85" y="896.1445">N2O Valve = Open</text><text fill="#000000" font-family="sans-serif" font-size="12" lengthAdjust="spacing" textLength="134" x="761.85" y="911.2383">All other valves = Closed</text></g><!--link FillOxIdle to FillOx--><g id="link_FillOxIdle_FillOx"><path d="M789.86,627.0544 C778.45,637.1544 770.85,649.5644 776.85,662.9844 C779.72,669.4044 779.8925,670.8546 784.6225,676.2446 " fill="none" id="FillOxIdle-to-FillOx" style="stroke:#181818;stroke-width:1.0;"/><polygon fill="#181818" points="788.58,680.7544,785.6502,671.3514,785.2821,676.9962,779.6372,676.6281,788.58,680.7544" style="stroke:#181818;stroke-width:1.0;"/><text fill="#000000" font-family="sans-serif" font-size="13" lengthAdjust="spacing" textLength="91" x="777.85" y="659.4795">N2OW &lt; Target</text></g><!--link FillOx to FillOxIdle--><g id="link_FillOx_FillOxIdle"><path d="M861.38,680.9744 C864.86,675.2744 867.88,669.1844 869.85,662.9844 C872.27,655.3544 872.56,652.5144 869.85,644.9844 C867.59,638.7144 867.5843,637.5086 863.5143,632.0686 " fill="none" id="FillOx-to-FillOxIdle" style="stroke:#181818;stroke-width:1.0;"/><polygon fill="#181818" points="859.92,627.2644,862.1087,636.867,862.9153,631.2679,868.5143,632.0745,859.92,627.2644" style="stroke:#181818;stroke-width:1.0;"/><text fill="#000000" font-family="sans-serif" font-size="13" lengthAdjust="spacing" textLength="99" x="871.85" y="659.4795">N2OW &gt;= Target</text></g><!--link FillOx to VentFillOx--><g id="link_FillOx_VentFillOx"><path d="M776.31,749.1144 C770.94,754.4144 766.24,760.3644 762.85,766.9844 C752.5,787.1544 753.18,797.4844 762.85,817.9844 C765.85,824.3444 765.9887,825.6931 770.6687,831.1131 " fill="none" id="FillOx-to-VentFillOx" style="stroke:#181818;stroke-width:1.0;"/><polygon fill="#181818" points="774.59,835.6544,771.7356,826.2282,771.3223,831.8699,765.6805,831.4566,774.59,835.6544" style="stroke:#181818;stroke-width:1.0;"/><text fill="#000000" font-family="sans-serif" font-size="13" lengthAdjust="spacing" textLength="90" x="778.85" y="781.4795">N2OP &gt; Trigger</text><text fill="#000000" font-family="sans-serif" font-size="13" lengthAdjust="spacing" textLength="27" x="810.35" y="797.8311">AND</text><text fill="#000000" font-family="sans-serif" font-size="13" lengthAdjust="spacing" textLength="120" x="763.85" y="814.1826">N2OT &gt; TriggerTemp</text></g><!--link VentFillOx to FillOx--><g id="link_VentFillOx_FillOx"><path d="M875.41,835.7244 C879.23,830.1244 882.53,824.1644 884.85,817.9844 C892.8,796.7544 893.52,787.9244 884.85,766.9844 C882.21,760.6244 882.1413,759.2929 877.7013,753.8229 " fill="none" id="VentFillOx-to-FillOx" style="stroke:#181818;stroke-width:1.0;"/><polygon fill="#181818" points="873.92,749.1644,876.4863,758.673,877.0711,753.0465,882.6976,753.6313,873.92,749.1644" style="stroke:#181818;stroke-width:1.0;"/><text fill="#000000" font-family="sans-serif" font-size="13" lengthAdjust="spacing" textLength="95" x="908.35" y="781.4795">N2OP &lt;= Target</text><text fill="#000000" font-family="sans-serif" font-size="13" lengthAdjust="spacing" textLength="19" x="946.35" y="797.8311">OR</text><text fill="#000000" font-family="sans-serif" font-size="13" lengthAdjust="spacing" textLength="128" x="891.85" y="814.1826">N2OT &lt;= TriggerTemp</text></g><path d="M1082,533.5 L1496,533.5 A12.5,12.5 0 0 1 1508.5,546 L1508.5,596.2969 L1069.5,596.2969 L1069.5,546 A12.5,12.5 0 0 1 1082,533.5 " fill="#FFFFE0" style="stroke:#FFFFE0;stroke-width:1.0;"/><rect fill="none" height="330.5938" rx="12.5" ry="12.5" style="stroke:#181818;stroke-width:0.5;" width="439" x="1069.5" y="533.5"/><line style="stroke:#181818;stroke-width:0.5;" x1="1069.5" x2="1508.5" y1="596.2969" y2="596.2969"/><line style="stroke:#181818;stroke-width:0.5;" x1="1069.5" x2="1508.5" y1="561.1094" y2="561.1094"/><text fill="#000000" font-family="sans-serif" font-size="14" lengthAdjust="spacing" textLength="105" x="1236.5" y="553.0332">PostPressurizing</text><text fill="#000000" font-family="sans-serif" font-size="12" lengthAdjust="spacing" textLength="336" x="1074.5" y="573.5664">TriggerN2OP = 55 bar ? might not be needed (regulator valve)</text><text fill="#000000" font-family="sans-serif" font-size="12" lengthAdjust="spacing" textLength="116" x="1074.5" y="588.6602">TargetN2OP = 50 bar</text><g id="PostFill.PostIdle"><rect fill="url(#g1b16ez3m2b7wy0)" height="67.7969" rx="12.5" ry="12.5" style="stroke:#181818;stroke-width:0.5;" width="226" x="1138.5" y="664.2969"/><line style="stroke:#181818;stroke-width:0.5;" x1="1138.5" x2="1364.5" y1="691.9063" y2="691.9063"/><text fill="#000000" font-family="sans-serif" font-size="14" lengthAdjust="spacing" textLength="22" x="1240.5" y="683.8301">Idle</text><text fill="#000000" font-family="sans-serif" font-size="12" lengthAdjust="spacing" textLength="206" x="1143.5" y="709.3633">Safe if not too long (Pressurized N2O)</text><text fill="#000000" font-family="sans-serif" font-size="12" lengthAdjust="spacing" textLength="103" x="1143.5" y="724.457">All valves = Closed</text></g><g id="PostFill.PostVent"><rect fill="#FFFFE0" height="67.7969" rx="12.5" ry="12.5" style="stroke:#181818;stroke-width:0.5;" width="154" x="1081.5" y="786.2969"/><line style="stroke:#181818;stroke-width:0.5;" x1="1081.5" x2="1235.5" y1="813.9063" y2="813.9063"/><text fill="#000000" font-family="sans-serif" font-size="14" lengthAdjust="spacing" textLength="29" x="1144" y="805.8301">Vent</text><text fill="#000000" font-family="sans-serif" font-size="12" lengthAdjust="spacing" textLength="99" x="1086.5" y="831.3633">Vent Valve = Open</text><text fill="#000000" font-family="sans-serif" font-size="12" lengthAdjust="spacing" textLength="134" x="1086.5" y="846.457">All other valves = Closed</text></g><g id="PostFill.PostFillN"><rect fill="#FFFFE0" height="67.7969" rx="12.5" ry="12.5" style="stroke:#181818;stroke-width:0.5;" width="154" x="1267.5" y="786.2969"/><line style="stroke:#181818;stroke-width:0.5;" x1="1267.5" x2="1421.5" y1="813.9063" y2="813.9063"/><text fill="#000000" font-family="sans-serif" font-size="14" lengthAdjust="spacing" textLength="31" x="1329" y="805.8301">Fill N</text><text fill="#000000" font-family="sans-serif" font-size="12" lengthAdjust="spacing" textLength="126" x="1272.5" y="831.3633">Tank Top Valve = Open</text><text fill="#000000" font-family="sans-serif" font-size="12" lengthAdjust="spacing" textLength="134" x="1272.5" y="846.457">All other valves = Closed</text></g><ellipse cx="1251.5" cy="617.2969" fill="#222222" rx="10" ry="10" style="stroke:#222222;stroke-width:1.0;"/><!--link *start*PostFill to PostIdle--><g id="link_*start*PostFill_PostIdle"><path d="M1251.5,627.3569 C1251.5,636.3569 1251.5,644.6969 1251.5,658.0669 " fill="none" id="*start*PostFill-to-PostIdle" style="stroke:#181818;stroke-width:1.0;"/><polygon fill="#181818" points="1251.5,664.0669,1255.5,655.0669,1251.5,659.0669,1247.5,655.0669,1251.5,664.0669" style="stroke:#181818;stroke-width:1.0;"/></g><!--link PostIdle to PostFillN--><g id="link_PostIdle_PostFillN"><path d="M1276.77,732.3369 C1285.53,743.7469 1295.42,756.6069 1304.5,768.2969 C1308.98,774.0769 1310.0676,775.4854 1314.7176,781.4154 " fill="none" id="PostIdle-to-PostFillN" style="stroke:#181818;stroke-width:1.0;"/><polygon fill="#181818" points="1318.42,786.1369,1316.0141,776.5864,1315.3347,782.2023,1309.7188,781.5229,1318.42,786.1369" style="stroke:#181818;stroke-width:1.0;"/><text fill="#000000" font-family="sans-serif" font-size="13" lengthAdjust="spacing" textLength="87" x="1305.5" y="764.792">N2OP &lt; Target</text></g><!--link PostFillN to PostIdle--><g id="link_PostFillN_PostIdle"><path d="M1387.22,785.9969 C1396.65,774.6869 1401.7,761.9569 1393.5,750.2969 C1385.96,739.5869 1381.1126,734.181 1369.8826,727.481 " fill="none" id="PostFillN-to-PostIdle" style="stroke:#181818;stroke-width:1.0;"/><polygon fill="#181818" points="1364.73,724.4069,1370.4095,732.4532,1369.0239,726.9687,1374.5084,725.583,1364.73,724.4069" style="stroke:#181818;stroke-width:1.0;"/><text fill="#000000" font-family="sans-serif" font-size="13" lengthAdjust="spacing" textLength="95" x="1398.5" y="764.792">N2OP &gt;= Target</text></g><!--link PostIdle to PostVent--><g id="link_PostIdle_PostVent"><path d="M1138.19,721.1669 C1124.6,728.3269 1112.42,737.7969 1103.5,750.2969 C1094.96,762.2669 1096.488,770.5602 1106.828,781.7502 " fill="none" id="PostIdle-to-PostVent" style="stroke:#181818;stroke-width:1.0;"/><polygon fill="#181818" points="1110.9,786.1569,1107.7298,776.8322,1107.5067,782.4846,1101.8542,782.2615,1110.9,786.1569" style="stroke:#181818;stroke-width:1.0;"/><text fill="#000000" font-family="sans-serif" font-size="13" lengthAdjust="spacing" textLength="73" x="1104.5" y="764.792">NP &gt; Trigger</text></g><!--link PostVent to PostIdle--><g id="link_PostVent_PostIdle"><path d="M1180.45,786.0969 C1188.38,774.5569 1197.58,761.6569 1206.5,750.2969 C1211.09,744.4469 1212.2273,742.9269 1217.2473,737.1169 " fill="none" id="PostVent-to-PostIdle" style="stroke:#181818;stroke-width:1.0;"/><polygon fill="#181818" points="1221.17,732.5769,1212.2592,736.7718,1217.9011,736.3603,1218.3126,742.0021,1221.17,732.5769" style="stroke:#181818;stroke-width:1.0;"/><text fill="#000000" font-family="sans-serif" font-size="13" lengthAdjust="spacing" textLength="78" x="1207.5" y="764.792">NP &lt;= Target</text></g><!--link *start* to Idle--><g id="link_*start*_Idle"><path d="M674.14,37.66 C638.12,42.5 513.14,64.62 464,143 C436.38,187.06 436.14,216.1 464,260 C498.55,314.44 564.3621,339.3747 616.5321,351.7547 " fill="none" id="*start*-to-Idle" style="stroke:#181818;stroke-width:1.0;"/><polygon fill="#181818" points="622.37,353.14,614.5367,347.1701,617.5051,351.9856,612.6896,354.9539,622.37,353.14" style="stroke:#181818;stroke-width:1.0;"/><text fill="#000000" font-family="sans-serif" font-size="13" lengthAdjust="spacing" textLength="71" x="465" y="206.9951">STOP_CMD</text></g><!--link *start* to Abort--><g id="link_*start*_Abort"><path d="M684,45.79 C684,65.91 684,108.75 684,146.21 " fill="none" id="*start*-to-Abort" style="stroke:#181818;stroke-width:1.0;"/><polygon fill="#181818" points="684,152.21,688,143.21,684,147.21,680,143.21,684,152.21" style="stroke:#181818;stroke-width:1.0;"/><text fill="#000000" font-family="sans-serif" font-size="13" lengthAdjust="spacing" textLength="80" x="685" y="109.4951">ABORT_CMD</text></g><!--link *start* to SafePause--><g id="link_*start*_SafePause"><path d="M689.77,43.89 C695.01,50.19 703.24,59.14 712,65 C729.02,76.38 810.1505,109.1789 891.0805,140.7589 " fill="none" id="*start*-to-SafePause" style="stroke:#181818;stroke-width:1.0;"/><polygon fill="#181818" points="896.67,142.94,889.7398,135.942,892.0121,141.1224,886.8316,143.3947,896.67,142.94" style="stroke:#181818;stroke-width:1.0;"/><text fill="#000000" font-family="sans-serif" font-size="13" lengthAdjust="spacing" textLength="81" x="818" y="109.4951">PAUSE_CMD</text></g><!--link SafePause to Idle--><g id="link_SafePause_Idle"><path d="M952.26,260.27 C922.69,276.95 889.55,294.33 858,308 C821.78,323.7 785.3922,335.5775 751.6622,345.3675 " fill="none" id="SafePause-to-Idle" style="stroke:#181818;stroke-width:1.0;"/><polygon fill="#181818" points="745.9,347.04,755.6583,348.3728,750.7018,345.6463,753.4283,340.6899,745.9,347.04" style="stroke:#181818;stroke-width:1.0;"/><text fill="#000000" font-family="sans-serif" font-size="13" lengthAdjust="spacing" textLength="92" x="897" y="304.4951">RESUME_CMD</text></g><!--link Abort to Idle--><g id="link_Abort_Idle"><path d="M684,250.81 C684,279.33 684,308.32 684,331.67 " fill="none" id="Abort-to-Idle" style="stroke:#181818;stroke-width:1.0;"/><polygon fill="#181818" points="684,337.67,688,328.67,684,332.67,680,328.67,684,337.67" style="stroke:#181818;stroke-width:1.0;"/><text fill="#000000" font-family="sans-serif" font-size="13" lengthAdjust="spacing" textLength="164" x="685" y="304.4951">STOP_CMD / READY_CMD</text></g><!--link Idle to COPVFill--><g id="link_Idle_COPVFill"><path d="M622.33,373.46 C514.64,388.38 298.06,423.22 238,469 C210.58,489.9 191.5165,513.4734 174.0165,543.5634 " fill="none" id="Idle-to-COPVFill" style="stroke:#181818;stroke-width:1.0;"/><polygon fill="#181818" points="171,548.75,178.9824,542.9811,173.5137,544.4278,172.067,538.9591,171,548.75" style="stroke:#181818;stroke-width:1.0;"/><text fill="#000000" font-family="sans-serif" font-size="13" lengthAdjust="spacing" textLength="105" x="360" y="435.4951">FILL_COPV_CMD</text></g><!--link Idle to PreFill--><g id="link_Idle_PreFill"><path d="M668.41,391.04 C648.45,423.73 615.3264,477.9789 579.9964,535.8489 " fill="none" id="Idle-to-PreFill" style="stroke:#181818;stroke-width:1.0;"/><polygon fill="#181818" points="576.87,540.97,584.9737,535.3727,579.4754,536.7024,578.1456,531.2041,576.87,540.97" style="stroke:#181818;stroke-width:1.0;"/><text fill="#000000" font-family="sans-serif" font-size="13" lengthAdjust="spacing" textLength="77" x="651" y="435.4951">FILL_N_CMD</text></g><!--link Idle to MainFill--><g id="link_Idle_MainFill"><path d="M711.12,391.06 C719.92,400.07 729.38,410.56 737,421 C748.06,436.15 755.6593,447.1313 766.0793,463.5813 " fill="none" id="Idle-to-MainFill" style="stroke:#181818;stroke-width:1.0;"/><polygon fill="#181818" points="769.29,468.65,767.8531,458.9065,766.6144,464.4261,761.0949,463.1874,769.29,468.65" style="stroke:#181818;stroke-width:1.0;"/><text fill="#000000" font-family="sans-serif" font-size="13" lengthAdjust="spacing" textLength="85" x="748" y="435.4951">FILL_OX_CMD</text></g><!--link Idle to PostFill--><g id="link_Idle_PostFill"><path d="M745.55,373.36 C821.68,385.14 953.29,412.33 1052,469 C1082.76,486.66 1108.0154,505.248 1135.4554,529.268 " fill="none" id="Idle-to-PostFill" style="stroke:#181818;stroke-width:1.0;"/><polygon fill="#181818" points="1139.97,533.22,1135.8327,524.2823,1136.2078,529.9267,1130.5634,530.3018,1139.97,533.22" style="stroke:#181818;stroke-width:1.0;"/><text fill="#000000" font-family="sans-serif" font-size="13" lengthAdjust="spacing" textLength="77" x="988" y="435.4951">FILL_N_CMD</text></g><!--SRC=[dLTjJzim4FwUNt4g7u1frKeHsbHHfgw52Oac5GqKD2Ra4hT4f0bAN8OsiH-sZ_jbEpksuxog7Lyg-nwVptVFSnTsOSe8ep0c3uz-IArlxxv3ktq2vrv0eGTJrvdS3ySZlJ-OHp53m-2BS-dcB5Eoe1EoJlYnoU1gUYgiLYBSjxIr1IGni3iJ4j2lCQNXBmlmJyBvzHefOic0a2BvdxPYG440BoHueGdqOHX42VK4xCrqUqr3fjto1UnS-Cj7Tak38FfHS2piFH0_rzmpEdQUQLW5uhT7x9763J7eO6Mov55x0YVWnlvoIMChvrRYv0CHTzm7byHBogmtAqkXKQxBq-dLM2O-hLH5BU43uWQZsnGMHfWOp8Xz82x7MzfW-ooEbfXfbuHFC8bfagnZcjgxZaQi4t1UVO-M4BCIOaPvcYqQUi0lLBIehcn3HT_KoVHrfQEAdZFYCrX4CTn0GX-Yq4jWx_T1PnzO14JKcXjRCLt6bBLoHzFVKi6LMQJ4ZPxh4VLSmEXtEHNd0PNFu5KqNe5cZuH81CoSH8pK6c5- -8G8J21WJaa0PC7mbYHQKM3-Yhw7-Pe9Sz59oyRDStv6i1zNOf5ZlvRgcHy4VhW4Ms27pkIQxvHpNPGgHzPBLLitb2g_avyHhjMYJgxQZZAfrgg1s4Ih-jKzgJZKHH-wdGxCIQfIrVRKkpBcgbrv_kpyukAUhuNUSgdWI3DqK-6veCsBPCimMe4g7CfGAj7_YGKKcSEDpQg7mEVwwcdhjeqM3pRrMMLkQhCPPfFA6VIH39Ofi1jYIErDuYu0ArYMNg_otLCjtUvsE7K-Qk8OY9HPlAFsuQZ4B9NpFBEouu9OjcQLBf614g5o_ySchRJHl4KXJ_e5QCwfcbdyKVcffOmbdvtyt2frcQuZgZGcVfWorQXIDLKvp7cj9wjXtwBPEA-6yxJPbdocIQhlC0An1KjvneoxisKTLmr4asHoiDg8SwXDejOrCjWjo7luIRFNn9ZyFZogXAHkNBfwvlqL_luPLdj9Fo24a9wMUKKOM249vqPhmc22whKg9REy9gGfGsMQc1KqOK2BUJP4SHSExD5TY9jkjidVQHLINmpCaCjT2CubI2Tyr_1YjFqeOUM-ZvibETMrViGMrDGkq5z3UkadYxyGtnaiYY28KCLxEW3gyKViLvtSSdBWmSRHeUoDioC3_UVma7cqcyBOS7mOo4s2qIKigkr8I0a-mqfeWXTYJY6arCFax-4txJeWB9Akzqk-SbEd_46Z2bOOEvc3ujnH1JPXDOD7MysBQYPFqMtTlqlQLlIPcpl_0000]--></g></svg>