<svg xmlns="http://www.w3.org/2000/svg" xmlns:xlink="http://www.w3.org/1999/xlink" contentStyleType="text/css" data-diagram-type="STATE" height="943px" preserveAspectRatio="none" style="width:1695px;height:943px;background:#FFFFFF;" version="1.1" viewBox="0 0 1695 943" width="1695px" zoomAndPan="magnify"><defs><linearGradient id="g18ygyh9b94pyq0" x1="50%" x2="50%" y1="0%" y2="100%"><stop offset="0%" stop-color="#98FB98"/><stop offset="100%" stop-color="#FFC0CB"/></linearGradient></defs><g><path d="M267.31,138.4 L679.4102,138.4 A12.5,12.5 0 0 1 691.9102,150.9 L691.9102,164.6969 L254.81,164.6969 L254.81,150.9 A12.5,12.5 0 0 1 267.31,138.4" fill="#98FB98"/><rect fill="none" height="112.5313" rx="12.5" ry="12.5" style="stroke:#181818;stroke-width:0.5;" width="437.1002" x="254.81" y="138.4"/><line style="stroke:#181818;stroke-width:0.5;" x1="254.81" x2="691.9102" y1="164.6969" y2="164.6969"/><text fill="#000000" font-family="sans-serif" font-size="14" lengthAdjust="spacing" textLength="72.8096" x="436.9553" y="156.3951">SafePause</text><g id="SafePause.SafeIdle"><rect fill="#98FB98" height="50.2656" rx="12.5" ry="12.5" style="stroke:#181818;stroke-width:0.5;" width="135.207" x="266.81" y="183.6769"/><line style="stroke:#181818;stroke-width:0.5;" x1="266.81" x2="402.017" y1="209.9738" y2="209.9738"/><text fill="#000000" font-family="sans-serif" font-size="14" lengthAdjust="spacing" textLength="25.5186" x="321.6542" y="201.672">Idle</text><text fill="#000000" font-family="sans-serif" font-size="12" lengthAdjust="spacing" textLength="115.207" x="271.81" y="226.1124">All valves = Closed</text></g><g id="SafePause.SafeVent"><rect fill="#FFFFE0" height="64.2344" rx="12.5" ry="12.5" style="stroke:#181818;stroke-width:0.5;" width="170.9902" x="511.92" y="176.6969"/><line style="stroke:#181818;stroke-width:0.5;" x1="511.92" x2="682.9102" y1="202.9937" y2="202.9937"/><text fill="#000000" font-family="sans-serif" font-size="14" lengthAdjust="spacing" textLength="32.5527" x="581.1388" y="194.692">Vent</text><text fill="#000000" font-family="sans-serif" font-size="12" lengthAdjust="spacing" textLength="114.832" x="516.92" y="219.1324">Vent Valve = Open</text><text fill="#000000" font-family="sans-serif" font-size="12" lengthAdjust="spacing" textLength="150.9902" x="516.92" y="233.1012">All other valves = Closed</text></g><!--link SafeIdle to SafeVent--><g class="link" data-entity-1="SafeIdle" data-entity-2="SafeVent" data-source-line="14" data-uid="lnk6" id="link_SafeIdle_SafeVent"><path d="M402.33,226.9769 C406.42,227.6969 410.49,228.3169 414.47,228.8069 C451.96,233.4269 461.88,232.6069 499.47,228.8069 C503.44,228.4069 501.5457,228.7328 505.6257,228.1728" fill="none" id="SafeIdle-to-SafeVent" style="stroke:#181818;stroke-width:1;"/><polygon fill="#181818" points="511.57,227.3569,502.1097,224.6178,506.6164,228.0368,503.1975,232.5435,511.57,227.3569" style="stroke:#181818;stroke-width:1;"/><text fill="#000000" font-family="sans-serif" font-size="13" lengthAdjust="spacing" textLength="83.4653" x="415.47" y="224.8738">NP &gt; Trigger</text></g><!--link SafeVent to SafeIdle--><g class="link" data-entity-1="SafeVent" data-entity-2="SafeIdle" data-source-line="15" data-uid="lnk7" id="link_SafeVent_SafeIdle"><path d="M511.71,208.8069 C476.3,208.8069 441.82,208.8069 408.48,208.8069" fill="none" id="SafeVent-to-SafeIdle" style="stroke:#181818;stroke-width:1;"/><polygon fill="#181818" points="402.48,208.8069,411.48,212.8069,407.48,208.8069,411.48,204.8069,402.48,208.8069" style="stroke:#181818;stroke-width:1;"/><text fill="#000000" font-family="sans-serif" font-size="13" lengthAdjust="spacing" textLength="90.2129" x="411.97" y="201.8738">NP &lt;= Target</text></g><g class="entity" data-entity="N1" data-source-line="22" data-uid="ent0005" id="entity_N1"><path d="M807.79,6 L807.79,61.3984 L1026.9194,61.3984 L1026.9194,16 L1016.9194,6 L807.79,6" fill="#FEFFDD" style="stroke:#181818;stroke-width:0.5;"/><path d="M1016.9194,6 L1016.9194,16 L1026.9194,16 L1016.9194,6" fill="#FEFFDD" style="stroke:#181818;stroke-width:1;"/><text fill="#000000" font-family="sans-serif" font-size="13" lengthAdjust="spacing" textLength="182.9902" x="813.79" y="23.0669">NP - Nitrogen Tank Pressure</text><text fill="#000000" font-family="sans-serif" font-size="13" lengthAdjust="spacing" textLength="198.1294" x="813.79" y="38.1997">N2OP - Nitrous Oxide Pressure</text><text fill="#000000" font-family="sans-serif" font-size="13" lengthAdjust="spacing" textLength="192.8862" x="813.79" y="53.3325">N2OW - Nitrous Oxide Weight</text></g><g id="Idle"><rect fill="#98FB98" height="50.2656" rx="12.5" ry="12.5" style="stroke:#181818;stroke-width:0.5;" width="135.207" x="694.75" y="327.93"/><line style="stroke:#181818;stroke-width:0.5;" x1="694.75" x2="829.957" y1="354.2269" y2="354.2269"/><text fill="#000000" font-family="sans-serif" font-size="14" lengthAdjust="spacing" textLength="25.5186" x="749.5942" y="345.9251">Idle</text><text fill="#000000" font-family="sans-serif" font-size="12" lengthAdjust="spacing" textLength="115.207" x="699.75" y="370.3655">All valves = Closed</text></g><g id="Abort"><rect fill="#98FB98" height="92.1719" rx="12.5" ry="12.5" style="stroke:#181818;stroke-width:0.5;" width="293.9492" x="870.38" y="148.58"/><line style="stroke:#181818;stroke-width:0.5;" x1="870.38" x2="1164.3292" y1="174.8769" y2="174.8769"/><text fill="#000000" font-family="sans-serif" font-size="14" lengthAdjust="spacing" textLength="38.2744" x="998.2174" y="166.5751">Abort</text><text fill="#000000" font-family="sans-serif" font-size="12" lengthAdjust="spacing" textLength="273.9492" x="875.38" y="191.0155">Wait for X seconds (~10) to allow for "regret"</text><text fill="#000000" font-family="sans-serif" font-size="12" lengthAdjust="spacing" textLength="119.7363" x="875.38" y="204.9843">Abort Valve = Open</text><text fill="#000000" font-family="sans-serif" font-size="12" lengthAdjust="spacing" textLength="142.2715" x="875.38" y="218.953">Tank Top Valve = Open</text><text fill="#000000" font-family="sans-serif" font-size="12" lengthAdjust="spacing" textLength="150.9902" x="875.38" y="232.9218">All other valves = Closed</text></g><g id="Safe"><rect fill="#98FB98" height="50" rx="12.5" ry="12.5" style="stroke:#181818;stroke-width:0.5;" width="51.0078" x="1061.85" y="8.7"/><line style="stroke:#181818;stroke-width:0.5;" x1="1061.85" x2="1112.8578" y1="34.9969" y2="34.9969"/><text fill="#000000" font-family="sans-serif" font-size="14" lengthAdjust="spacing" textLength="31.0078" x="1071.85" y="26.6951">Safe</text></g><g id="Dangerous"><rect fill="#FFC0CB" height="50" rx="12.5" ry="12.5" style="stroke:#181818;stroke-width:0.5;" width="96.2207" x="1148.25" y="8.7"/><line style="stroke:#181818;stroke-width:0.5;" x1="1148.25" x2="1244.4707" y1="34.9969" y2="34.9969"/><text fill="#000000" font-family="sans-serif" font-size="14" lengthAdjust="spacing" textLength="76.2207" x="1158.25" y="26.6951">Dangerous</text></g><g id="NotIdeal"><rect fill="#FFFFE0" height="50" rx="12.5" ry="12.5" style="stroke:#181818;stroke-width:0.5;" width="83.0752" x="1279.82" y="8.7"/><line style="stroke:#181818;stroke-width:0.5;" x1="1279.82" x2="1362.8952" y1="34.9969" y2="34.9969"/><text fill="#000000" font-family="sans-serif" font-size="14" lengthAdjust="spacing" textLength="63.0752" x="1289.82" y="26.6951">Not Ideal</text></g><path d="M19.5,550.73 L235.2129,550.73 A12.5,12.5 0 0 1 247.7129,563.23 L247.7129,595.9956 L7,595.9956 L7,563.23 A12.5,12.5 0 0 1 19.5,550.73" fill="#98FB98"/><rect fill="none" height="290.77" rx="12.5" ry="12.5" style="stroke:#181818;stroke-width:0.5;" width="240.7129" x="7" y="550.73"/><line style="stroke:#181818;stroke-width:0.5;" x1="7" x2="247.7129" y1="595.9956" y2="595.9956"/><line style="stroke:#181818;stroke-width:0.5;" x1="7" x2="247.7129" y1="577.0269" y2="577.0269"/><text fill="#000000" font-family="sans-serif" font-size="14" lengthAdjust="spacing" textLength="56.2939" x="99.2095" y="568.7251">Filling N</text><text fill="#000000" font-family="sans-serif" font-size="12" lengthAdjust="spacing" textLength="119.8418" x="12" y="588.1655">TargetNP = 200 bar</text><g id="COPVFill.COPVIdle"><rect fill="#98FB98" height="50.2656" rx="12.5" ry="12.5" style="stroke:#181818;stroke-width:0.5;" width="135.207" x="36.89" y="663.9956"/><line style="stroke:#181818;stroke-width:0.5;" x1="36.89" x2="172.097" y1="690.2925" y2="690.2925"/><text fill="#000000" font-family="sans-serif" font-size="14" lengthAdjust="spacing" textLength="25.5186" x="91.7342" y="681.9907">Idle</text><text fill="#000000" font-family="sans-serif" font-size="12" lengthAdjust="spacing" textLength="115.207" x="41.89" y="706.4312">All valves = Closed</text></g><g id="COPVFill.FillCOPV"><rect fill="#FFFFE0" height="64.2344" rx="12.5" ry="12.5" style="stroke:#181818;stroke-width:0.5;" width="170.9902" x="19" y="767.2656"/><line style="stroke:#181818;stroke-width:0.5;" x1="19" x2="189.9902" y1="793.5625" y2="793.5625"/><text fill="#000000" font-family="sans-serif" font-size="14" lengthAdjust="spacing" textLength="58.5361" x="75.2271" y="785.2607">FillCOPV</text><text fill="#000000" font-family="sans-serif" font-size="12" lengthAdjust="spacing" textLength="95.9063" x="24" y="809.7012">N Valve = Open</text><text fill="#000000" font-family="sans-serif" font-size="12" lengthAdjust="spacing" textLength="150.9902" x="24" y="823.6699">All other valves = Closed</text></g><ellipse cx="104.5" cy="616.9956" fill="#222222" rx="10" ry="10" style="stroke:#222222;stroke-width:1;"/><!--link *start*COPVFill to COPVIdle--><g class="link" data-entity-1=".start.COPVFill" data-entity-2="COPVIdle" data-source-line="54" data-uid="lnk11" id="link_.start.COPVFill_COPVIdle"><path d="M104.5,627.4556 C104.5,636.7256 104.5,645.2556 104.5,657.7656" fill="none" id="*start*COPVFill-to-COPVIdle" style="stroke:#181818;stroke-width:1;"/><polygon fill="#181818" points="104.5,663.7656,108.5,654.7656,104.5,658.7656,100.5,654.7656,104.5,663.7656" style="stroke:#181818;stroke-width:1;"/></g><!--link COPVIdle to FillCOPV--><g class="link" data-entity-1="COPVIdle" data-entity-2="FillCOPV" data-source-line="56" data-uid="lnk13" id="link_COPVIdle_FillCOPV"><path d="M61.29,714.6056 C50.08,724.3056 42.6,736.2556 48.5,749.2656 C51.38,755.6256 51.512,757.0296 56.282,762.3196" fill="none" id="COPVIdle-to-FillCOPV" style="stroke:#181818;stroke-width:1;"/><polygon fill="#181818" points="60.3,766.7756,57.2437,757.413,56.9517,763.0623,51.3024,762.7703,60.3,766.7756" style="stroke:#181818;stroke-width:1;"/><text fill="#000000" font-family="sans-serif" font-size="13" lengthAdjust="spacing" textLength="90.2129" x="49.5" y="745.3325">NP &lt;= Target</text></g><!--link FillCOPV to COPVIdle--><g class="link" data-entity-1="FillCOPV" data-entity-2="COPVIdle" data-source-line="57" data-uid="lnk14" id="link_FillCOPV_COPVIdle"><path d="M131.85,766.9656 C135.4,761.3856 138.49,755.3956 140.5,749.2656 C144.49,737.0356 142.5324,729.4505 134.6224,719.2305" fill="none" id="FillCOPV-to-COPVIdle" style="stroke:#181818;stroke-width:1;"/><polygon fill="#181818" points="130.95,714.4856,133.2953,724.0512,134.0103,718.4397,139.6218,719.1546,130.95,714.4856" style="stroke:#181818;stroke-width:1;"/><text fill="#000000" font-family="sans-serif" font-size="13" lengthAdjust="spacing" textLength="90.2129" x="142.5" y="745.3325">NP &gt;= Target</text></g><path d="M294.96,543.75 L773.7463,543.75 A12.5,12.5 0 0 1 786.2463,556.25 L786.2463,602.9844 L282.46,602.9844 L282.46,556.25 A12.5,12.5 0 0 1 294.96,543.75" fill="#98FB98"/><rect fill="none" height="304.7388" rx="12.5" ry="12.5" style="stroke:#181818;stroke-width:0.5;" width="503.7863" x="282.46" y="543.75"/><line style="stroke:#181818;stroke-width:0.5;" x1="282.46" x2="786.2463" y1="602.9844" y2="602.9844"/><line style="stroke:#181818;stroke-width:0.5;" x1="282.46" x2="786.2463" y1="570.0469" y2="570.0469"/><text fill="#000000" font-family="sans-serif" font-size="14" lengthAdjust="spacing" textLength="107.7275" x="480.4894" y="561.7451">PrePressurizing</text><text fill="#000000" font-family="sans-serif" font-size="12" lengthAdjust="spacing" textLength="123.668" x="287.46" y="581.1855">TriggerN20P = 7 bar</text><text fill="#000000" font-family="sans-serif" font-size="12" lengthAdjust="spacing" textLength="121.6523" x="287.46" y="595.1543">TargetN2OP = 5 bar</text><g id="PreFill.PrepIdle"><rect fill="#98FB98" height="50.2656" rx="12.5" ry="12.5" style="stroke:#181818;stroke-width:0.5;" width="135.207" x="424.92" y="670.9844"/><line style="stroke:#181818;stroke-width:0.5;" x1="424.92" x2="560.127" y1="697.2813" y2="697.2813"/><text fill="#000000" font-family="sans-serif" font-size="14" lengthAdjust="spacing" textLength="25.5186" x="479.7642" y="688.9795">Idle</text><text fill="#000000" font-family="sans-serif" font-size="12" lengthAdjust="spacing" textLength="115.207" x="429.92" y="713.4199">All valves = Closed</text></g><g id="PreFill.PreVent"><rect fill="#FFFFE0" height="64.2344" rx="12.5" ry="12.5" style="stroke:#181818;stroke-width:0.5;" width="170.9902" x="297.03" y="774.2544"/><line style="stroke:#181818;stroke-width:0.5;" x1="297.03" x2="468.0202" y1="800.5513" y2="800.5513"/><text fill="#000000" font-family="sans-serif" font-size="14" lengthAdjust="spacing" textLength="32.5527" x="366.2488" y="792.2495">Vent</text><text fill="#000000" font-family="sans-serif" font-size="12" lengthAdjust="spacing" textLength="114.832" x="302.03" y="816.6899">Vent Valve = Open</text><text fill="#000000" font-family="sans-serif" font-size="12" lengthAdjust="spacing" textLength="150.9902" x="302.03" y="830.6587">All other valves = Closed</text></g><g id="PreFill.PreFillN"><rect fill="#FFFFE0" height="64.2344" rx="12.5" ry="12.5" style="stroke:#181818;stroke-width:0.5;" width="162.2715" x="521.39" y="774.2544"/><line style="stroke:#181818;stroke-width:0.5;" x1="521.39" x2="683.6615" y1="800.5513" y2="800.5513"/><text fill="#000000" font-family="sans-serif" font-size="14" lengthAdjust="spacing" textLength="34.6445" x="585.2035" y="792.2495">Fill N</text><text fill="#000000" font-family="sans-serif" font-size="12" lengthAdjust="spacing" textLength="142.2715" x="526.39" y="816.6899">Tank Top Valve = Open</text><text fill="#000000" font-family="sans-serif" font-size="12" lengthAdjust="spacing" textLength="95.9063" x="526.39" y="830.6587">N Valve = Open</text></g><ellipse cx="492.53" cy="623.9844" fill="#222222" rx="10" ry="10" style="stroke:#222222;stroke-width:1;"/><!--link *start*PreFill to PrepIdle--><g class="link" data-entity-1=".start.PreFill" data-entity-2="PrepIdle" data-source-line="74" data-uid="lnk16" id="link_.start.PreFill_PrepIdle"><path d="M492.53,634.4444 C492.53,643.7144 492.53,652.2444 492.53,664.7544" fill="none" id="*start*PreFill-to-PrepIdle" style="stroke:#181818;stroke-width:1;"/><polygon fill="#181818" points="492.53,670.7544,496.53,661.7544,492.53,665.7544,488.53,661.7544,492.53,670.7544" style="stroke:#181818;stroke-width:1;"/></g><!--link PrepIdle to PreFillN--><g class="link" data-entity-1="PrepIdle" data-entity-2="PreFillN" data-source-line="76" data-uid="lnk18" id="link_PrepIdle_PreFillN"><path d="M518.21,721.5244 C524.24,727.3144 530.63,733.4744 536.53,739.2544 C548,750.4844 556.237,758.6621 567.217,769.6921" fill="none" id="PrepIdle-to-PreFillN" style="stroke:#181818;stroke-width:1;"/><polygon fill="#181818" points="571.45,773.9444,567.9354,764.744,567.9225,770.4008,562.2657,770.388,571.45,773.9444" style="stroke:#181818;stroke-width:1;"/><text fill="#000000" font-family="sans-serif" font-size="13" lengthAdjust="spacing" textLength="97.8237" x="554.53" y="752.3213">N2OP &lt; Target</text></g><!--link PreFillN to PrepIdle--><g class="link" data-entity-1="PreFillN" data-entity-2="PrepIdle" data-source-line="77" data-uid="lnk19" id="link_PreFillN_PrepIdle"><path d="M649.02,774.0144 C659.6,763.1044 665.43,750.7244 656.53,739.2544 C644.45,723.6844 606.004,713.8867 566.454,707.1167" fill="none" id="PreFillN-to-PrepIdle" style="stroke:#181818;stroke-width:1;"/><polygon fill="#181818" points="560.54,706.1044,568.7361,711.5655,565.4683,706.948,570.0859,703.6802,560.54,706.1044" style="stroke:#181818;stroke-width:1;"/><text fill="#000000" font-family="sans-serif" font-size="13" lengthAdjust="spacing" textLength="108.7163" x="662.53" y="752.3213">N2OP &gt;= Target</text></g><!--link PrepIdle to PreVent--><g class="link" data-entity-1="PrepIdle" data-entity-2="PreVent" data-source-line="78" data-uid="lnk20" id="link_PrepIdle_PreVent"><path d="M424.84,703.3444 C376.98,709.3144 318.72,720.2944 303.53,739.2544 C293.46,751.8044 295.498,760.0254 308.518,770.1754" fill="none" id="PrepIdle-to-PreVent" style="stroke:#181818;stroke-width:1;"/><polygon fill="#181818" points="313.25,773.8644,308.6113,765.1763,309.3067,770.7903,303.6927,771.4857,313.25,773.8644" style="stroke:#181818;stroke-width:1;"/><text fill="#000000" font-family="sans-serif" font-size="13" lengthAdjust="spacing" textLength="100.0073" x="304.53" y="752.3213">N20P &gt; Trigger</text></g><!--link PreVent to PrepIdle--><g class="link" data-entity-1="PreVent" data-entity-2="PrepIdle" data-source-line="79" data-uid="lnk21" id="link_PreVent_PrepIdle"><path d="M398.53,773.9744 C405.48,762.2144 414.37,749.2944 424.53,739.2544 C431.04,732.8044 433.7395,730.2302 441.5395,724.9902" fill="none" id="PreVent-to-PrepIdle" style="stroke:#181818;stroke-width:1;"/><polygon fill="#181818" points="446.52,721.6444,436.8187,723.3428,442.3696,724.4326,441.2799,729.9835,446.52,721.6444" style="stroke:#181818;stroke-width:1;"/><text fill="#000000" font-family="sans-serif" font-size="13" lengthAdjust="spacing" textLength="106.7549" x="425.53" y="752.3213">N20P &lt;= Target</text></g><path d="M833.96,455.2 L1146.7474,455.2 A12.5,12.5 0 0 1 1159.2474,467.7 L1159.2474,556.3406 L821.46,556.3406 L821.46,467.7 A12.5,12.5 0 0 1 833.96,455.2" fill="#FFFFE0"/><rect fill="none" height="481.8438" rx="12.5" ry="12.5" style="stroke:#181818;stroke-width:0.5;" width="337.7874" x="821.46" y="455.2"/><line style="stroke:#181818;stroke-width:0.5;" x1="821.46" x2="1159.2474" y1="556.3406" y2="556.3406"/><line style="stroke:#181818;stroke-width:0.5;" x1="821.46" x2="1159.2474" y1="481.4969" y2="481.4969"/><text fill="#000000" font-family="sans-serif" font-size="14" lengthAdjust="spacing" textLength="76.2207" x="952.2433" y="473.1951">Filling N2O</text><text fill="#000000" font-family="sans-serif" font-size="12" lengthAdjust="spacing" textLength="133.1133" x="826.46" y="492.6355">TriggerN2OP = 38 bar</text><text fill="#000000" font-family="sans-serif" font-size="12" lengthAdjust="spacing" textLength="129.2871" x="826.46" y="506.6043">TargetN2OP = 35 bar</text><text fill="#000000" font-family="sans-serif" font-size="12" lengthAdjust="spacing" textLength="120.334" x="826.46" y="520.573">TriggerTemp = 2 ºC</text><text fill="#000000" font-family="sans-serif" font-size="12" lengthAdjust="spacing" textLength="116.5078" x="826.46" y="534.5418">TargetTemp = 7 ºC</text><text fill="#000000" font-family="sans-serif" font-size="12" lengthAdjust="spacing" textLength="125.5313" x="826.46" y="548.5105">TargetWeight = 7 kg</text><g id="MainFill.FillOxIdle"><rect fill="#98FB98" height="50.2656" rx="12.5" ry="12.5" style="stroke:#181818;stroke-width:0.5;" width="135.207" x="859.82" y="568.3406"/><line style="stroke:#181818;stroke-width:0.5;" x1="859.82" x2="995.027" y1="594.6375" y2="594.6375"/><text fill="#000000" font-family="sans-serif" font-size="14" lengthAdjust="spacing" textLength="25.5186" x="914.6642" y="586.3357">Idle</text><text fill="#000000" font-family="sans-serif" font-size="12" lengthAdjust="spacing" textLength="115.207" x="864.82" y="610.7762">All valves = Closed</text></g><g id="MainFill.FillOx"><rect fill="#FFC0CB" height="64.2344" rx="12.5" ry="12.5" style="stroke:#181818;stroke-width:0.5;" width="170.9902" x="841.93" y="701.6006"/><line style="stroke:#181818;stroke-width:0.5;" x1="841.93" x2="1012.9202" y1="727.8975" y2="727.8975"/><text fill="#000000" font-family="sans-serif" font-size="14" lengthAdjust="spacing" textLength="39.0264" x="907.9119" y="719.5957">FillOx</text><text fill="#000000" font-family="sans-serif" font-size="12" lengthAdjust="spacing" textLength="112.9863" x="846.93" y="744.0362">N2O Valve = Open</text><text fill="#000000" font-family="sans-serif" font-size="12" lengthAdjust="spacing" textLength="150.9902" x="846.93" y="758.0049">All other valves = Closed</text></g><g id="MainFill.VentFillOx"><rect fill="#FFFFE0" height="78.2031" rx="12.5" ry="12.5" style="stroke:#181818;stroke-width:0.5;" width="170.9902" x="841.93" y="848.8406"/><line style="stroke:#181818;stroke-width:0.5;" x1="841.93" x2="1012.9202" y1="875.1375" y2="875.1375"/><text fill="#000000" font-family="sans-serif" font-size="14" lengthAdjust="spacing" textLength="71.5791" x="891.6356" y="866.8357">VentFillOx</text><text fill="#000000" font-family="sans-serif" font-size="12" lengthAdjust="spacing" textLength="114.832" x="846.93" y="891.2762">Vent Valve = Open</text><text fill="#000000" font-family="sans-serif" font-size="12" lengthAdjust="spacing" textLength="112.9863" x="846.93" y="905.2449">N2O Valve = Open</text><text fill="#000000" font-family="sans-serif" font-size="12" lengthAdjust="spacing" textLength="150.9902" x="846.93" y="919.2137">All other valves = Closed</text></g><!--link FillOxIdle to FillOx--><g class="link" data-entity-1="FillOxIdle" data-entity-2="FillOx" data-source-line="101" data-uid="lnk23" id="link_FillOxIdle_FillOx"><path d="M860.11,618.9206 C853.53,623.8206 847.71,629.6606 843.43,636.6006 C832.46,654.3806 833.03,665.4806 843.43,683.6006 C847.29,690.3406 847.9532,692.3126 853.8732,697.4626" fill="none" id="FillOxIdle-to-FillOx" style="stroke:#181818;stroke-width:1;"/><polygon fill="#181818" points="858.4,701.4006,854.2351,692.4757,854.6277,698.1189,848.9844,698.5115,858.4,701.4006" style="stroke:#181818;stroke-width:1;"/><text fill="#000000" font-family="sans-serif" font-size="13" lengthAdjust="spacing" textLength="102.8384" x="865.847" y="649.6675">N2OW &lt; Target</text><text fill="#000000" font-family="sans-serif" font-size="13" lengthAdjust="spacing" textLength="28.6279" x="902.9522" y="664.8003">AND</text><text fill="#000000" font-family="sans-serif" font-size="13" lengthAdjust="spacing" textLength="145.6724" x="844.43" y="679.9331">N2OT &gt;= TargetTemp</text></g><!--link FillOx to FillOxIdle--><g class="link" data-entity-1="FillOx" data-entity-2="FillOxIdle" data-source-line="102" data-uid="lnk24" id="link_FillOx_FillOxIdle"><path d="M977.66,701.2006 C982.78,695.9606 987.26,690.0806 990.43,683.6006 C999.59,664.8306 1000.27,655.0306 990.43,636.6006 C986.83,629.8706 986.1965,627.9226 980.3065,622.9026" fill="none" id="FillOx-to-FillOxIdle" style="stroke:#181818;stroke-width:1;"/><polygon fill="#181818" points="975.74,619.0106,979.9951,627.8929,979.5454,622.2539,985.1843,621.8043,975.74,619.0106" style="stroke:#181818;stroke-width:1;"/><text fill="#000000" font-family="sans-serif" font-size="13" lengthAdjust="spacing" textLength="113.731" x="1008.9544" y="649.6675">N2OW &gt;= Target</text><text fill="#000000" font-family="sans-serif" font-size="13" lengthAdjust="spacing" textLength="19.2651" x="1056.1873" y="664.8003">OR</text><text fill="#000000" font-family="sans-serif" font-size="13" lengthAdjust="spacing" textLength="134.7798" x="998.43" y="679.9331">N2OT &lt; TargetTemp</text></g><!--link FillOx to VentFillOx--><g class="link" data-entity-1="FillOx" data-entity-2="VentFillOx" data-source-line="103" data-uid="lnk25" id="link_FillOx_VentFillOx"><path d="M862.01,766.1106 C856.23,771.2706 851.17,777.1506 847.43,783.8406 C837.23,802.0706 837.79,812.3006 847.43,830.8406 C850.79,837.3106 851.1129,838.8835 856.2529,844.1835" fill="none" id="FillOx-to-VentFillOx" style="stroke:#181818;stroke-width:1;"/><polygon fill="#181818" points="860.43,848.4906,857.0357,839.2451,856.9491,844.9013,851.2929,844.8146,860.43,848.4906" style="stroke:#181818;stroke-width:1;"/><text fill="#000000" font-family="sans-serif" font-size="13" lengthAdjust="spacing" textLength="101.9688" x="866.908" y="796.9075">N2OP &gt; Trigger</text><text fill="#000000" font-family="sans-serif" font-size="13" lengthAdjust="spacing" textLength="28.6279" x="903.5784" y="812.0403">AND</text><text fill="#000000" font-family="sans-serif" font-size="13" lengthAdjust="spacing" textLength="138.9248" x="848.43" y="827.1731">N2OT &gt; TriggerTemp</text></g><!--link VentFillOx to FillOx--><g class="link" data-entity-1="VentFillOx" data-entity-2="FillOx" data-source-line="104" data-uid="lnk26" id="link_VentFillOx_FillOx"><path d="M976.49,848.4506 C980.89,843.0106 984.7,837.1206 987.43,830.8406 C995.74,811.6706 996.37,802.7106 987.43,783.8406 C984.37,777.3906 984.1312,775.8713 979.1412,770.5913" fill="none" id="VentFillOx-to-FillOx" style="stroke:#181818;stroke-width:1;"/><polygon fill="#181818" points="975.02,766.2306,978.2947,775.5191,978.4543,769.8645,984.1089,770.0242,975.02,766.2306" style="stroke:#181818;stroke-width:1;"/><text fill="#000000" font-family="sans-serif" font-size="13" lengthAdjust="spacing" textLength="108.7163" x="1014.9805" y="796.9075">N2OP &lt;= Target</text><text fill="#000000" font-family="sans-serif" font-size="13" lengthAdjust="spacing" textLength="19.2651" x="1059.7061" y="812.0403">OR</text><text fill="#000000" font-family="sans-serif" font-size="13" lengthAdjust="spacing" textLength="149.8174" x="994.43" y="827.1731">N2OT &lt;= TriggerTemp</text></g><path d="M1206.75,536.76 L1669.9663,536.76 A12.5,12.5 0 0 1 1682.4663,549.26 L1682.4663,595.9944 L1194.25,595.9944 L1194.25,549.26 A12.5,12.5 0 0 1 1206.75,536.76" fill="#FFFFE0"/><rect fill="none" height="318.7088" rx="12.5" ry="12.5" style="stroke:#181818;stroke-width:0.5;" width="488.2163" x="1194.25" y="536.76"/><line style="stroke:#181818;stroke-width:0.5;" x1="1194.25" x2="1682.4663" y1="595.9944" y2="595.9944"/><line style="stroke:#181818;stroke-width:0.5;" x1="1194.25" x2="1682.4663" y1="563.0569" y2="563.0569"/><text fill="#000000" font-family="sans-serif" font-size="14" lengthAdjust="spacing" textLength="114.707" x="1381.0046" y="554.7551">PostPressurizing</text><text fill="#000000" font-family="sans-serif" font-size="12" lengthAdjust="spacing" textLength="377.6191" x="1199.25" y="574.1955">TriggerN2OP = 55 bar ? might not be needed (regulator valve)</text><text fill="#000000" font-family="sans-serif" font-size="12" lengthAdjust="spacing" textLength="129.2871" x="1199.25" y="588.1643">TargetN2OP = 50 bar</text><g id="PostFill.PostIdle"><rect fill="url(#g18ygyh9b94pyq0)" height="64.2344" rx="12.5" ry="12.5" style="stroke:#181818;stroke-width:0.5;" width="246.6113" x="1271.44" y="663.9944"/><line style="stroke:#181818;stroke-width:0.5;" x1="1271.44" x2="1518.0513" y1="690.2913" y2="690.2913"/><text fill="#000000" font-family="sans-serif" font-size="14" lengthAdjust="spacing" textLength="25.5186" x="1381.9864" y="681.9895">Idle</text><text fill="#000000" font-family="sans-serif" font-size="12" lengthAdjust="spacing" textLength="226.6113" x="1276.44" y="706.4299">Safe if not too long (Pressurized N2O)</text><text fill="#000000" font-family="sans-serif" font-size="12" lengthAdjust="spacing" textLength="115.207" x="1276.44" y="720.3987">All valves = Closed</text></g><g id="PostFill.PostVent"><rect fill="#FFFFE0" height="64.2344" rx="12.5" ry="12.5" style="stroke:#181818;stroke-width:0.5;" width="170.9902" x="1206.25" y="781.2344"/><line style="stroke:#181818;stroke-width:0.5;" x1="1206.25" x2="1377.2402" y1="807.5313" y2="807.5313"/><text fill="#000000" font-family="sans-serif" font-size="14" lengthAdjust="spacing" textLength="32.5527" x="1275.4688" y="799.2295">Vent</text><text fill="#000000" font-family="sans-serif" font-size="12" lengthAdjust="spacing" textLength="114.832" x="1211.25" y="823.6699">Vent Valve = Open</text><text fill="#000000" font-family="sans-serif" font-size="12" lengthAdjust="spacing" textLength="150.9902" x="1211.25" y="837.6387">All other valves = Closed</text></g><g id="PostFill.PostFillN"><rect fill="#FFFFE0" height="64.2344" rx="12.5" ry="12.5" style="stroke:#181818;stroke-width:0.5;" width="170.9902" x="1412.25" y="781.2344"/><line style="stroke:#181818;stroke-width:0.5;" x1="1412.25" x2="1583.2402" y1="807.5313" y2="807.5313"/><text fill="#000000" font-family="sans-serif" font-size="14" lengthAdjust="spacing" textLength="34.6445" x="1480.4229" y="799.2295">Fill N</text><text fill="#000000" font-family="sans-serif" font-size="12" lengthAdjust="spacing" textLength="142.2715" x="1417.25" y="823.6699">Tank Top Valve = Open</text><text fill="#000000" font-family="sans-serif" font-size="12" lengthAdjust="spacing" textLength="150.9902" x="1417.25" y="837.6387">All other valves = Closed</text></g><ellipse cx="1394.75" cy="616.9944" fill="#222222" rx="10" ry="10" style="stroke:#222222;stroke-width:1;"/><!--link *start*PostFill to PostIdle--><g class="link" data-entity-1=".start.PostFill" data-entity-2="PostIdle" data-source-line="122" data-uid="lnk28" id="link_.start.PostFill_PostIdle"><path d="M1394.75,627.4544 C1394.75,636.4644 1394.75,644.5344 1394.75,657.5244" fill="none" id="*start*PostFill-to-PostIdle" style="stroke:#181818;stroke-width:1;"/><polygon fill="#181818" points="1394.75,663.5244,1398.75,654.5244,1394.75,658.5244,1390.75,654.5244,1394.75,663.5244" style="stroke:#181818;stroke-width:1;"/></g><!--link PostIdle to PostFillN--><g class="link" data-entity-1="PostIdle" data-entity-2="PostFillN" data-source-line="124" data-uid="lnk30" id="link_PostIdle_PostFillN"><path d="M1422.64,728.4044 C1432.47,739.4144 1443.59,751.8744 1453.75,763.2344 C1458.86,768.9444 1460.3097,770.5625 1465.5697,776.4425" fill="none" id="PostIdle-to-PostFillN" style="stroke:#181818;stroke-width:1;"/><polygon fill="#181818" points="1469.57,780.9144,1466.5507,771.5397,1466.2364,777.1878,1460.5883,776.8735,1469.57,780.9144" style="stroke:#181818;stroke-width:1;"/><text fill="#000000" font-family="sans-serif" font-size="13" lengthAdjust="spacing" textLength="97.8237" x="1454.75" y="759.3013">N2OP &lt; Target</text></g><!--link PostFillN to PostIdle--><g class="link" data-entity-1="PostFillN" data-entity-2="PostIdle" data-source-line="125" data-uid="lnk31" id="link_PostFillN_PostIdle"><path d="M1544.98,781.0144 C1555.52,770.2144 1561.33,757.8944 1552.75,746.2344 C1543.72,733.9744 1536.9799,727.459 1523.5199,720.439" fill="none" id="PostFillN-to-PostIdle" style="stroke:#181818;stroke-width:1;"/><polygon fill="#181818" points="1518.2,717.6644,1524.3302,725.3729,1522.6333,719.9765,1528.0296,718.2796,1518.2,717.6644" style="stroke:#181818;stroke-width:1;"/><text fill="#000000" font-family="sans-serif" font-size="13" lengthAdjust="spacing" textLength="108.7163" x="1558.75" y="759.3013">N2OP &gt;= Target</text></g><!--link PostIdle to PostVent--><g class="link" data-entity-1="PostIdle" data-entity-2="PostVent" data-source-line="126" data-uid="lnk32" id="link_PostIdle_PostVent"><path d="M1271.06,714.8044 C1255.33,722.1444 1241.13,732.2844 1230.75,746.2344 C1221.89,758.1344 1223.6422,766.1801 1234.8422,776.7801" fill="none" id="PostIdle-to-PostVent" style="stroke:#181818;stroke-width:1;"/><polygon fill="#181818" points="1239.2,780.9044,1235.4129,771.8127,1235.5685,777.4675,1229.9138,777.6231,1239.2,780.9044" style="stroke:#181818;stroke-width:1;"/><text fill="#000000" font-family="sans-serif" font-size="13" lengthAdjust="spacing" textLength="83.4653" x="1231.75" y="759.3013">NP &gt; Trigger</text></g><!--link PostVent to PostIdle--><g class="link" data-entity-1="PostVent" data-entity-2="PostIdle" data-source-line="127" data-uid="lnk33" id="link_PostVent_PostIdle"><path d="M1314.97,781.0144 C1323.67,769.7644 1333.85,757.1644 1343.75,746.2344 C1349.02,740.3944 1350.5778,738.6173 1356.3478,732.9273" fill="none" id="PostVent-to-PostIdle" style="stroke:#181818;stroke-width:1;"/><polygon fill="#181818" points="1360.62,728.7144,1351.4032,732.1857,1357.0599,732.2251,1357.0204,737.8819,1360.62,728.7144" style="stroke:#181818;stroke-width:1;"/><text fill="#000000" font-family="sans-serif" font-size="13" lengthAdjust="spacing" textLength="90.2129" x="1344.75" y="759.3013">NP &lt;= Target</text></g><ellipse cx="762.36" cy="33.7" fill="#222222" rx="10" ry="10" style="stroke:#222222;stroke-width:1;"/><!--link *start* to Idle--><g class="link" data-entity-1=".start." data-entity-2="Idle" data-source-line="2" data-uid="lnk3" id="link_.start._Idle"><path d="M762.36,44.2 C762.36,87 762.36,256.68 762.36,321.71" fill="none" id="*start*-to-Idle" style="stroke:#181818;stroke-width:1;"/><polygon fill="#181818" points="762.36,327.71,766.36,318.71,762.36,322.71,758.36,318.71,762.36,327.71" style="stroke:#181818;stroke-width:1;"/><text fill="#000000" font-family="sans-serif" font-size="13" lengthAdjust="spacing" textLength="71.0684" x="763.36" y="199.2269">STOP_CMD</text></g><!--link *start* to Abort--><g class="link" data-entity-1=".start." data-entity-2="Abort" data-source-line="3" data-uid="lnk4" id="link_.start._Abort"><path d="M768.86,41.76 C774.29,47.44 782.41,55.43 790.36,61.4 C833.47,93.81 879.9274,121.6182 923.0974,145.2582" fill="none" id="*start*-to-Abort" style="stroke:#181818;stroke-width:1;"/><polygon fill="#181818" points="928.36,148.14,922.3873,140.3089,923.9745,145.7385,918.5449,147.3257,928.36,148.14" style="stroke:#181818;stroke-width:1;"/><text fill="#000000" font-family="sans-serif" font-size="13" lengthAdjust="spacing" textLength="81.8213" x="857.36" y="104.4669">ABORT_CMD</text></g><!--link *start* to SafePause--><g class="link" data-entity-1=".start." data-entity-2="SafePause" data-source-line="4" data-uid="lnk5" id="link_.start._SafePause"><path d="M753.72,39.19 C735.48,48.68 691.71,71.56 655.36,91.4 C628,106.33 603.7108,119.8308 576.5708,135.0808" fill="none" id="*start*-to-SafePause" style="stroke:#181818;stroke-width:1;"/><polygon fill="#181818" points="571.34,138.02,581.1456,137.0984,575.699,135.5707,577.2267,130.124,571.34,138.02" style="stroke:#181818;stroke-width:1;"/><text fill="#000000" font-family="sans-serif" font-size="13" lengthAdjust="spacing" textLength="79.5171" x="656.36" y="104.4669">PAUSE_CMD</text></g><!--link SafePause to Idle--><g class="link" data-entity-1="SafePause" data-entity-2="Idle" data-source-line="17" data-uid="lnk8" id="link_SafePause_Idle"><path d="M561.37,251.23 C587.41,266.95 616.23,283.66 643.36,297.93 C663.04,308.29 679.6145,316.1967 699.3445,325.0367" fill="none" id="SafePause-to-Idle" style="stroke:#181818;stroke-width:1;"/><polygon fill="#181818" points="704.82,327.49,698.2423,320.1597,700.2571,325.4456,694.9712,327.4604,704.82,327.49" style="stroke:#181818;stroke-width:1;"/><text fill="#000000" font-family="sans-serif" font-size="13" lengthAdjust="spacing" textLength="91.2476" x="644.36" y="293.9969">RESUME_CMD</text></g><!--link Abort to Idle--><g class="link" data-entity-1="Abort" data-entity-2="Idle" data-source-line="19" data-uid="lnk9" id="link_Abort_Idle"><path d="M943.26,241.11 C897.23,269.34 844.9846,301.383 807.3546,324.463" fill="none" id="Abort-to-Idle" style="stroke:#181818;stroke-width:1;"/><polygon fill="#181818" points="802.24,327.6,812.0032,326.3042,806.5022,324.9858,807.8206,319.4848,802.24,327.6" style="stroke:#181818;stroke-width:1;"/><text fill="#000000" font-family="sans-serif" font-size="13" lengthAdjust="spacing" textLength="164.6074" x="876.36" y="293.9969">STOP_CMD / READY_CMD</text></g><!--link Idle to COPVFill--><g class="link" data-entity-1="Idle" data-entity-2="COPVFill" data-source-line="55" data-uid="lnk12" id="link_Idle_COPVFill"><path d="M694.29,360.95 C574.74,374.17 333.29,406.2 265.36,455.2 C231.74,479.44 208.0861,509.3701 187.5561,545.3101" fill="none" id="Idle-to-COPVFill" style="stroke:#181818;stroke-width:1;"/><polygon fill="#181818" points="184.58,550.52,192.5173,544.6892,187.06,546.1784,185.5708,540.7211,184.58,550.52" style="stroke:#181818;stroke-width:1;"/><text fill="#000000" font-family="sans-serif" font-size="13" lengthAdjust="spacing" textLength="105.1426" x="389.36" y="421.2669">FILL_COPV_CMD</text></g><!--link Idle to PreFill--><g class="link" data-entity-1="Idle" data-entity-2="PreFill" data-source-line="75" data-uid="lnk17" id="link_Idle_PreFill"><path d="M745.96,378.59 C722.63,413.49 681.3147,475.2921 639.0147,538.5621" fill="none" id="Idle-to-PreFill" style="stroke:#181818;stroke-width:1;"/><polygon fill="#181818" points="635.68,543.55,644.0074,538.2913,638.459,539.3934,637.3568,533.8449,635.68,543.55" style="stroke:#181818;stroke-width:1;"/><text fill="#000000" font-family="sans-serif" font-size="13" lengthAdjust="spacing" textLength="78.8252" x="725.36" y="421.2669">FILL_N_CMD</text></g><!--link Idle to MainFill--><g class="link" data-entity-1="Idle" data-entity-2="MainFill" data-source-line="100" data-uid="lnk22" id="link_Idle_MainFill"><path d="M786.8,378.53 C795.28,387.53 804.61,398.02 812.36,408.2 C823.72,423.12 831.6055,433.8663 842.6855,449.8763" fill="none" id="Idle-to-MainFill" style="stroke:#181818;stroke-width:1;"/><polygon fill="#181818" points="846.1,454.81,844.2675,445.1331,843.2546,450.6986,837.6892,449.6857,846.1,454.81" style="stroke:#181818;stroke-width:1;"/><text fill="#000000" font-family="sans-serif" font-size="13" lengthAdjust="spacing" textLength="88.2388" x="824.36" y="421.2669">FILL_OX_CMD</text></g><!--link Idle to PostFill--><g class="link" data-entity-1="Idle" data-entity-2="PostFill" data-source-line="123" data-uid="lnk29" id="link_Idle_PostFill"><path d="M830.2,360.18 C915.37,370.13 1063.94,395.16 1176.36,455.2 C1216.62,476.7 1250.973,501.8607 1285.903,532.4007" fill="none" id="Idle-to-PostFill" style="stroke:#181818;stroke-width:1;"/><polygon fill="#181818" points="1290.42,536.35,1286.2774,527.4147,1286.6558,533.0589,1281.0117,533.4374,1290.42,536.35" style="stroke:#181818;stroke-width:1;"/><text fill="#000000" font-family="sans-serif" font-size="13" lengthAdjust="spacing" textLength="78.8252" x="1103.36" y="421.2669">FILL_N_CMD</text></g><!--SRC=[dLTjJzim4FxUNt4g7u1fQ8K9CLMKgIim8K5IqK91Oq8kDIKY92Xn6Th4VjW-xfVjxDZEEMzgnvVAliVdyztpt8Lr60acE9onkuSWugrlxxx3rjO1dCn23bqOZVtXxU3iqExtft4YqD3_uf-F7Sk8tVCXMwJosB1_CJfIrbQgtBUjjGqi9TYr8GlvruJpw5SBy4_3vVKMgMB9WP0XvP-rOa1X22yiVE4fz60GnYcVATWRTNl98s7ToWMidGRp1t7Dmp3-KN2ix5rGFvVICphsdtbK1PAtn-A19mqns61rilHHRmW7C4w2-PmdBSUjnka78cw_1sEMpBbelRNo599odH-DBivquhDALTGIFY2kVtYTmQ8O4uCPyRRLvNZB5dY1IE8vPdhCeaSO9ZnD5mdFx3k-HInIy5-36IyX9YN4XCiqjtWq0tcXeKLrPHig-cPEPgyh7JNqdB10m7sSm1Ma_2wEPYbi_DxkR8A8WQbQIsCxuVE4YxPpDFij5ToOLKh6yNCzefuB6FswfE8qvFePieha5MYUiGY9W9dJY4EpHbWGFI824mYOKnO2knTuIne_SH314tyFquLGvgAJjeUR9_ACOZ-krC9XlvNgSH26GJG7Js47_l1IxfHpNPIgHDPBrLgNbAgyKvvHhisYJgxMZZAfrYf1BADL- -gkLXpgeWSxdGvCMQPIq_RCktBccbrz_lZazFHMhfNUd5H890sTAjm9cbwaMmPf1QPmA4EjnE0d5b1b3ZUMgnu2d-khPwshDbeysDHdZRcfpUQOPIf7wACPh5FWDSIGsPl4NG1Mi2oxtkIxQrgwjzEHrDcpn268Z5coe_PWjyGiatENMVbnHIpFiigMYA1KgDB_FgMLDT9R3FAWLu0wJitCaezofvOnbdnstBbLwZ8xlghI6GkYZAcaIjLKbJ3_jPwinBv2i_5VYVEisPPyPacgxp0AiG9BPSR8tVcoZgi4qIGP1rORiODQ9cfR8y9kHTwFdonxAORo- -Dk9IHpC-PFpxA_mjy_Wsel6h5NZyW-CHJcSUvgXc2LQFmhgnh25TEDJT8cLZKtKTyxl8bmRvphGqP4N93ZkPmcEVmc0lySj9Fz1X_5sX6XEN7GtBKAvIm-XKZGZQFdU26Z94v5UPRWPacYTUC4iGM5RXKaPI7Tx3Cek5VVBYAE8OonCspO0FXCFcApwkIAqmWFDeuZOs-SHpdeFmUIpgFN5CQI8uaWbmd6bh2eu5qbJ_WCJqf5iX1J3X7dCqp-1dudBq8cOkrwi-JBcMJbZoHJiC8eonqKPvafC8NL33DhfHVLJBEYsxf_mQojwDEPPVy0]--></g></svg>